<?xml version="1.0" encoding="UTF-8" standalone="no"?>
<svg
   version="1.1"
   viewBox="0 0 256 85.085"
   id="svg294"
   sodipodi:docname="asterlinux-logo-text.svg"
   xml:space="preserve"
   inkscape:version="1.2.2 (b0a8486541, 2022-12-01)"
   xmlns:inkscape="http://www.inkscape.org/namespaces/inkscape"
   xmlns:sodipodi="http://sodipodi.sourceforge.net/DTD/sodipodi-0.dtd"
   xmlns="http://www.w3.org/2000/svg"
   xmlns:svg="http://www.w3.org/2000/svg"><defs
     id="defs298"><rect
       x="412.42182"
       y="613.10003"
       width="135.2045"
       height="624.83855"
       id="rect529" /><rect
       x="457.84331"
       y="715.06827"
       width="18.048968"
       height="534.72261"
       id="rect523" /><rect
       x="272.56147"
       y="336.55548"
       width="284.57803"
       height="469.80115"
       id="rect451" /></defs><sodipodi:namedview
     id="namedview296"
     pagecolor="#ffffff"
     bordercolor="#000000"
     borderopacity="0.25"
     inkscape:showpageshadow="2"
     inkscape:pageopacity="0.0"
     inkscape:pagecheckerboard="0"
     inkscape:deskcolor="#d1d1d1"
     showgrid="false"
     inkscape:zoom="1.7727627"
     inkscape:cx="141.30487"
     inkscape:cy="59.511632"
     inkscape:window-width="1280"
     inkscape:window-height="727"
     inkscape:window-x="0"
     inkscape:window-y="0"
     inkscape:window-maximized="1"
     inkscape:current-layer="g292" /><g
     id="g292"
     transform="translate(-3.6603618,-0.63279363)"><g
       id="g2050"
       transform="translate(32.044575,1.0275008)"><path
         d="m 71.069076,79.21385 v -1.9453 h -0.72656 v -0.25781 h 1.75 v 0.25781 h -0.73047 v 1.9453 h -0.29297"
         fill="#1793d1"
         id="path288" /><path
         d="m 72.914764,79.135765 v -2.2031 h 0.44141 l 0.51953,1.5586 c 0.05078,0.14453 0.08594,0.25391 0.10547,0.32812 0.02734,-0.08203 0.06641,-0.19922 0.11719,-0.35547 l 0.52734,-1.5312 h 0.39453 v 2.2031 h -0.28125 v -1.8438 l -0.64062,1.8438 h -0.26562 l -0.63672,-1.8789 v 1.8789 h -0.28125"
         fill="#1793d1"
         id="path290"
         inkscape:transform-center-x="-3.0031061"
         inkscape:transform-center-y="-0.34456592" /><g
         inkscape:label="Layer 1"
         id="layer1"
         transform="matrix(0.52570042,0,0,0.40918075,-12.552091,-18.615549)"><g
           id="g1527"
           style="opacity:1;paint-order:markers stroke fill"
           transform="translate(19.214463,1.85e-5)"><path
             id="path175"
             style="fill:#00a3b6;fill-opacity:1;stroke-width:0.264583;paint-order:markers stroke fill"
             d="M 104.85303,50.743673 A 97.761826,97.761826 0 0 0 7.2383179,148.49998 97.761826,97.761826 0 0 0 104.85303,246.25629 V 231.16987 A 76.562874,82.676414 0 0 1 28.437024,148.49998 76.562874,82.676414 0 0 1 104.85303,65.83009 Z" /><text
             xml:space="preserve"
             transform="scale(0.26458333)"
             id="text449"
             style="font-size:22677.2px;white-space:pre;shape-inside:url(#rect451);display:inline;fill:#999999;paint-order:markers stroke fill" /><text
             xml:space="preserve"
             style="font-size:6000.01px;fill:#999999;stroke-width:0.264583;paint-order:markers stroke fill"
             x="107.1109"
             y="120.23006"
             id="text457"><tspan
               sodipodi:role="line"
               id="tspan455"
               style="stroke-width:0.264583;paint-order:markers stroke fill"
               x="107.1109"
               y="120.23006" /></text><text
             xml:space="preserve"
             style="font-size:520.7px;fill:#999999;stroke-width:0.264583;paint-order:markers stroke fill"
             x="134.87021"
             y="101.39788"
             id="text461"><tspan
               sodipodi:role="line"
               id="tspan459"
               style="font-size:520.7px;stroke-width:0.264583;paint-order:markers stroke fill"
               x="134.87021"
               y="101.39788" /></text><text
             xml:space="preserve"
             style="font-size:520.7px;fill:#999999;stroke-width:0.264583;paint-order:markers stroke fill"
             x="112.10848"
             y="287.13855"
             id="text465"><tspan
               sodipodi:role="line"
               id="tspan463"
               style="stroke-width:0.264583;paint-order:markers stroke fill"
               x="112.10848"
               y="287.13855" /></text><text
             xml:space="preserve"
             style="font-size:5.02708px;fill:#999999;stroke-width:0.264583;paint-order:markers stroke fill"
             x="118.12156"
             y="316.08344"
             id="text519"><tspan
               sodipodi:role="line"
               id="tspan517"
               style="font-size:5.02708px;stroke-width:0.264583;paint-order:markers stroke fill"
               x="118.12156"
               y="316.08344" /></text><text
             xml:space="preserve"
             transform="scale(0.26458333)"
             id="text521"
             style="font-size:19px;white-space:pre;shape-inside:url(#rect523);display:inline;fill:#999999;paint-order:markers stroke fill" /><text
             xml:space="preserve"
             transform="scale(0.26458333)"
             id="text527"
             style="font-size:19px;white-space:pre;shape-inside:url(#rect529);display:inline;fill:#999999;paint-order:markers stroke fill" /><text
             xml:space="preserve"
             style="font-style:normal;font-variant:normal;font-weight:bold;font-stretch:normal;font-size:382.058px;font-family:sans-serif;-inkscape-font-specification:'sans-serif Bold';fill:#999999;stroke-width:0.264583;paint-order:markers stroke fill"
             x="93.926064"
             y="150.09351"
             id="text545"><tspan
               sodipodi:role="line"
               id="tspan543"
               style="stroke-width:0.264583;paint-order:markers stroke fill"
               x="93.926064"
               y="150.09351" /></text><text
             xml:space="preserve"
             style="font-style:normal;font-variant:normal;font-weight:bold;font-stretch:normal;font-size:38.1px;font-family:sans-serif;-inkscape-font-specification:'sans-serif Bold';fill:#999999;stroke-width:0.264583;paint-order:markers stroke fill"
             x="126.64455"
             y="-115.97429"
             id="text549"><tspan
               sodipodi:role="line"
               id="tspan547"
               style="font-size:38.1px;stroke-width:0.264583;paint-order:markers stroke fill"
               x="126.64455"
               y="-115.97429" /></text><text
             xml:space="preserve"
             style="font-style:normal;font-variant:normal;font-weight:bold;font-stretch:normal;font-size:79.375px;font-family:sans-serif;-inkscape-font-specification:'sans-serif Bold';white-space:pre;inline-size:4.05531;display:inline;fill:#000000;stroke-width:0.264583;paint-order:markers stroke fill"
             x="143.85565"
             y="-16.214172"
             id="text553"><tspan
               x="143.85565"
               y="-16.214172"
               id="tspan2229">s</tspan></text></g><rect
           style="fill:#000000;stroke-width:0.273032"
           id="rect705"
           width="21.382999"
           height="124.80576"
           x="148.75714"
           y="92.108658"
           transform="matrix(1,0,-0.34373529,0.93906659,0,0)" /><rect
           style="fill:#000000;stroke-width:0.264583"
           id="rect707"
           width="32.183559"
           height="14.04298"
           x="119.85693"
           y="166.41753" /><rect
           style="fill:#000000;stroke-width:0.272228"
           id="rect713"
           width="21.382999"
           height="45.678696"
           x="93.122063"
           y="91.764511"
           transform="matrix(1,0,0.3281603,0.94462205,0,0)" /></g></g><text
       xml:space="preserve"
       style="fill:#000000"
       x="94.9198"
       y="24.204472"
       id="text691"><tspan
         sodipodi:role="line"
         id="tspan689"
         x="94.9198"
         y="24.204472" /></text><path
       d="m 125.53532,36.22846 c -0.0549,0.08656 -0.27429,0.129834 -0.45714,0.08656 -0.38401,-0.08656 -2.06628,0.23082 -2.41372,0.432783 -0.128,0.07213 -0.56685,0.216393 -0.98743,0.302949 -0.40228,0.100984 -1.024,0.37508 -1.35314,0.620324 -0.34742,0.245245 -0.71314,0.461636 -0.85943,0.476063 -0.31085,0.04328 -1.68228,1.110811 -1.68228,1.312778 0,0.100982 -0.16457,0.288523 -0.38399,0.44721 -0.45715,0.3318 -1.29829,1.572448 -1.13372,1.702281 0.0549,0.04328 -0.0183,0.201968 -0.18285,0.346229 -0.36572,0.302949 -0.73144,1.543595 -0.56686,1.933101 0.0549,0.144261 0,0.375079 -0.128,0.490488 -0.14629,0.144262 -0.16458,0.44721 -0.0731,1.038682 0.0731,0.447209 0.16457,1.053106 0.20114,1.327203 0.0914,0.779011 0.45714,1.702284 0.73143,1.889823 0.14628,0.08656 0.256,0.25967 0.256,0.37508 0,0.331801 0.69486,1.053107 2.06627,2.091788 0.69486,0.548194 1.42629,0.980977 1.60915,0.980977 0.20114,0 0.40229,0.08656 0.45714,0.201966 0.0549,0.115409 0.56685,0.389505 1.13372,0.605897 0.56685,0.216392 1.17028,0.447211 1.31656,0.519341 0.74972,0.331801 1.97486,0.721306 2.43201,0.764585 0.29257,0.02885 0.62171,0.115408 0.73142,0.18754 0.34742,0.216391 1.99315,0.605896 2.176,0.51934 0.0914,-0.04328 0.29257,0 0.43886,0.100983 0.32914,0.216392 2.048,0.851142 2.304,0.851142 0.20114,0 2.56001,1.543596 2.50514,1.615726 -0.0182,0.02885 0.0549,0.18754 0.18285,0.360653 0.10972,0.173114 0.29258,0.649176 0.38401,1.038681 0.14629,0.605898 0.10971,0.807864 -0.21943,1.34163 -0.60343,0.995403 -0.98742,1.283926 -2.37715,1.803266 -0.95085,0.360653 -1.64571,0.519342 -2.52343,0.56262 -0.65828,0.04328 -1.27999,0.100982 -1.40799,0.129835 -0.27429,0.07213 -3.584,-0.245245 -3.712,-0.360653 -0.0549,-0.04328 -0.58514,-0.230818 -1.18857,-0.418357 -2.19428,-0.692456 -4.27885,-2.928505 -4.82742,-5.207834 -0.12801,-0.519341 -0.32915,-0.980977 -0.42058,-1.024255 -0.10971,-0.05771 -0.14628,-0.201965 -0.0914,-0.317375 0.0549,-0.129835 0,-0.302948 -0.14629,-0.389506 -0.20114,-0.129834 -0.40228,-0.04328 -0.98742,0.37508 -0.42057,0.288523 -0.74971,0.649176 -0.74971,0.793437 0,0.158688 -0.0731,0.274097 -0.18285,0.274097 -0.23772,0 -0.95086,1.125238 -1.00572,1.586874 -0.0183,0.201966 -0.14628,0.649175 -0.256,0.995403 -0.31086,0.865567 0,3.519976 0.43885,3.90948 0.16458,0.144262 0.25601,0.346228 0.18287,0.418358 -0.14629,0.201966 0.80457,1.586875 1.22514,1.759988 0.18285,0.07213 0.32914,0.216392 0.32914,0.317376 0,0.230816 1.49942,1.399334 1.79199,1.399334 0.10972,0 0.29257,0.115409 0.384,0.274096 0.10971,0.144262 0.65829,0.447211 1.24343,0.663602 0.58514,0.230819 1.22515,0.476063 1.40799,0.548193 0.73144,0.274096 2.23086,0.63475 2.4503,0.577046 0.12799,-0.04328 0.34742,0.01443 0.49371,0.100982 0.14629,0.100983 0.82285,0.216392 1.49943,0.245245 0.69485,0.04328 1.71886,0.100982 2.304,0.14426 0.58514,0.04328 1.18857,0.02885 1.37143,-0.02885 0.16457,-0.05771 0.85943,-0.115407 1.55429,-0.144261 0.67656,-0.01443 1.33485,-0.100982 1.44456,-0.187539 0.128,-0.100983 0.40228,-0.173114 0.64,-0.173114 0.54858,0 2.432,-0.562618 2.432,-0.735732 0,-0.07213 0.14628,-0.129835 0.31085,-0.129835 0.43886,0 2.24915,-0.89442 2.24915,-1.110812 0,-0.100982 0.0914,-0.18754 0.21942,-0.18754 0.29258,0 1.79201,-1.154091 1.79201,-1.384909 0,-0.08656 0.16457,-0.274097 0.384,-0.432783 0.45714,-0.331801 1.29829,-1.57245 1.13371,-1.702283 -0.0549,-0.04328 0.0182,-0.201966 0.16458,-0.331801 0.54857,-0.490491 0.768,-1.514743 0.768,-3.649811 0,-1.745562 -0.0549,-2.192772 -0.34743,-2.668834 -0.18286,-0.317376 -0.34743,-0.678029 -0.36571,-0.807863 -0.0549,-0.346228 -0.98744,-1.543596 -1.28,-1.630153 -0.14629,-0.04328 -0.27429,-0.158687 -0.27429,-0.274096 0,-0.230818 -1.48115,-1.399335 -1.792,-1.399335 -0.12801,0 -0.27429,-0.100982 -0.34743,-0.216392 -0.128,-0.274096 -1.57257,-1.081959 -2.06628,-1.15409 -0.20115,-0.02885 -0.51201,-0.158687 -0.67658,-0.302949 -0.34743,-0.25967 -1.77371,-0.77901 -2.19428,-0.77901 -0.14629,0 -0.38401,-0.100984 -0.53029,-0.216392 -0.14628,-0.11541 -0.73143,-0.317375 -1.31657,-0.447211 -0.56686,-0.129834 -1.20686,-0.288522 -1.40801,-0.360653 -1.35313,-0.432784 -1.82857,-0.562619 -2.21256,-0.562619 -0.21943,0 -0.47543,-0.07213 -0.53029,-0.144261 -0.0731,-0.08656 -0.54857,-0.317375 -1.06057,-0.533767 -0.95085,-0.389506 -1.06057,-0.418358 -1.408,-0.461636 -0.0914,0 -0.18286,-0.115409 -0.18286,-0.230818 0,-0.115409 -0.0731,-0.216392 -0.18285,-0.216392 -0.27429,0 -1.37143,-1.34163 -1.408,-1.731136 -0.0182,-0.201965 0.0549,-0.721306 0.16457,-1.168517 0.18286,-0.77901 0.21943,-0.822289 1.37143,-1.442612 0.65828,-0.346227 1.33485,-0.649176 1.49943,-0.663603 0.16457,0 0.84114,-0.08656 1.49943,-0.158687 0.93257,-0.115408 1.44457,-0.100982 2.28571,0.07213 0.58514,0.115411 1.20685,0.216393 1.35313,0.23082 0.1463,0.01443 0.7863,0.302949 1.40801,0.634749 0.62172,0.346227 1.22514,0.620324 1.31657,0.620324 0.10972,0 0.20115,0.08656 0.20115,0.201965 0,0.346227 1.57256,1.356056 2.28571,1.471466 0.60342,0.08656 0.73143,0.04328 1.38972,-0.461636 0.384,-0.302949 0.71314,-0.63475 0.71314,-0.735733 0,-0.08656 0.10971,-0.230819 0.25599,-0.288523 0.36572,-0.158687 1.20686,-1.356055 1.20686,-1.71671 0,-0.173112 0.128,-0.389505 0.27428,-0.490488 0.14629,-0.100982 0.27429,-0.418357 0.27429,-0.721306 0,-0.447209 -0.14628,-0.663602 -0.768,-1.182943 -0.84114,-0.692454 -1.82857,-1.269499 -2.13943,-1.269499 -0.0914,0 -0.49371,-0.158688 -0.85942,-0.360653 -0.36572,-0.201966 -1.00572,-0.432783 -1.42628,-0.51934 -0.42058,-0.08656 -1.02401,-0.259671 -1.33487,-0.37508 -0.89599,-0.302949 -2.79772,-0.490488 -5.57714,-0.56262 -1.66399,-0.04328 -2.54171,0 -2.63314,0.100984 z"
       id="path1867"
       style="stroke-width:0.0162417" /><path
       d="m 156.90316,27.149289 c -0.0425,0.04256 -0.48103,0.09932 -0.9762,0.141897 -0.49518,0.02838 -1.21671,0.113516 -1.61285,0.198655 -0.382,0.07095 -1.10353,0.198656 -1.58456,0.297985 -0.49517,0.08515 -0.89131,0.212845 -0.89131,0.269605 0,0.07095 -0.21222,0.113517 -0.48102,0.113517 -0.43859,0 -1.16013,0.283794 -2.06559,0.808814 -0.3537,0.198656 -0.91961,1.546679 -0.76398,1.802094 0.0424,0.07095 0,0.212847 -0.0849,0.340554 -0.24051,0.283794 -0.55176,1.688576 -0.46687,2.043319 0.0424,0.156086 0.0141,0.283795 -0.0708,0.283795 -0.15562,0 -0.31125,0.737864 -0.41028,1.844662 -0.16978,1.972372 0,2.185217 1.21671,1.546679 0.46688,-0.255413 1.07524,-0.652727 1.3299,-0.893952 0.25466,-0.241226 0.70738,-0.567589 1.00449,-0.723675 0.31126,-0.156087 0.73569,-0.45407 0.94791,-0.681107 0.21221,-0.212845 0.45272,-0.383121 0.55176,-0.383121 0.18392,0 1.25916,-0.525021 1.55626,-0.766246 0.22636,-0.184466 1.32989,-0.468261 2.05143,-0.539209 l 0.42444,-0.04257 0.0849,1.206125 c 0.0425,0.666918 0.0283,1.305454 -0.0283,1.418971 -0.18392,0.340554 -0.39614,1.58925 -0.31125,1.802096 0.0424,0.09932 0.0141,0.269605 -0.0707,0.368932 -0.12733,0.156087 -0.24051,0.695296 -0.38199,1.887234 -0.0283,0.227034 -0.12734,0.794622 -0.21222,1.248693 -0.0849,0.468262 -0.11319,0.936521 -0.0707,1.050039 0.0425,0.113518 0.0141,0.283794 -0.0566,0.368932 -0.14148,0.156087 -0.28296,1.759526 -0.36784,3.774465 -0.0141,0.51083 -0.0566,1.305455 -0.0707,1.787905 -0.0283,0.468261 0,0.936521 0.0566,1.035849 0.0566,0.08515 0.0283,0.269606 -0.0566,0.383123 -0.12733,0.141897 -0.15563,0.45407 -0.0849,1.02166 0.0566,0.439881 0.12733,1.844662 0.14148,3.107547 0.0283,1.475731 0.11319,2.383873 0.21222,2.51158 0.0849,0.09932 0.12733,0.297985 0.0707,0.411502 -0.099,0.297984 0.21222,1.802096 0.382,1.802096 0.0707,0 0.12733,0.141896 0.12733,0.326361 0,0.184468 0.14148,0.468261 0.3254,0.624348 0.2971,0.283794 0.45273,0.297985 3.46621,0.283794 3.50866,-0.01419 3.70673,-0.05676 3.70673,-0.851383 0,-0.255415 -0.099,-0.610158 -0.22636,-0.780434 -0.11318,-0.170276 -0.18392,-0.368932 -0.14148,-0.439881 0.099,-0.156086 -0.3537,-1.759524 -0.52347,-1.873043 -0.0849,-0.05676 -0.099,-0.198657 -0.0566,-0.297985 0.0849,-0.241224 -0.12732,-1.461539 -0.35369,-1.91561 -0.0849,-0.156088 -0.11319,-0.354743 -0.0707,-0.425692 0.0425,-0.05676 0.0141,-0.397312 -0.0566,-0.752054 -0.38199,-1.929803 -0.56592,-4.753557 -0.55176,-8.442883 0,-3.206876 0.0566,-4.441381 0.25465,-5.675887 0.0707,-0.46826 0.099,-0.936522 0.0707,-1.035849 -0.0424,-0.09932 -0.0141,-0.255415 0.0707,-0.354743 0.0849,-0.08514 0.22637,-0.58178 0.3254,-1.092608 0.18393,-0.922331 0.43858,-1.418972 1.10353,-2.171027 0.29711,-0.326364 0.42444,-0.368933 0.84887,-0.297984 0.28296,0.04256 0.74984,0.170276 1.04694,0.283794 0.28295,0.09932 0.52347,0.156088 0.52347,0.09932 0,-0.05675 0.36785,0.255416 0.82057,0.681106 0.43858,0.439882 0.91961,0.837194 1.06109,0.879763 0.12733,0.05676 0.24051,0.184466 0.24051,0.297984 0,0.255414 0.83472,0.9649 1.04694,0.893952 0.0849,-0.02838 0.22637,-0.184467 0.31126,-0.354744 0.0849,-0.170276 0.25465,-0.42569 0.36783,-0.553397 0.33956,-0.383123 0.82058,-1.418972 0.82058,-1.745336 0,-0.156088 0.0566,-0.283794 0.12733,-0.283794 0.18393,0 0.56592,-1.220315 0.6508,-2.085888 0.0707,-0.681106 0.0283,-0.780434 -0.36784,-1.248695 -0.24052,-0.269604 -0.52347,-0.49664 -0.62251,-0.49664 -0.11318,0 -0.28295,-0.09932 -0.41029,-0.212846 -0.28295,-0.297984 -1.44307,-0.780434 -1.85336,-0.780434 -0.18392,0 -0.36784,-0.05676 -0.41028,-0.11352 -0.0849,-0.127707 -1.52797,-0.48245 -1.72604,-0.42569 -0.0707,0.01419 -0.35369,-0.04256 -0.62251,-0.141898 -0.28295,-0.09932 -0.9196,-0.212845 -1.41478,-0.255414 -1.3016,-0.113519 -6.73436,-0.198656 -6.81925,-0.113519 z"
       id="path1869"
       style="stroke-width:0.0141688" /><path
       d="m 179.48932,38.482764 c -0.18868,0.216032 -0.4088,0.715609 -0.50314,1.10717 -0.0943,0.391561 -0.23584,0.918141 -0.31445,1.147676 -0.0943,0.243038 -0.22013,0.850632 -0.29874,1.350209 -0.0786,0.513079 -0.22013,1.242191 -0.31446,1.647253 -0.0943,0.391561 -0.14152,0.810125 -0.0787,0.918142 0.0472,0.121518 0.0157,0.283543 -0.0629,0.364556 -0.0786,0.08101 -0.23584,0.729112 -0.33017,1.431221 -0.0943,0.702108 -0.25158,1.795776 -0.34591,2.430374 -0.0787,0.634598 -0.17296,1.458224 -0.20439,1.849785 -0.0315,0.378058 -0.0943,0.823627 -0.15724,0.985652 -0.0628,0.162024 -0.1415,0.729112 -0.17295,1.269196 -0.0472,0.52658 -0.14151,1.566241 -0.23584,2.308855 -0.0787,0.742614 -0.18869,3.294508 -0.22013,5.670874 -0.0943,4.982268 0.0472,6.535006 0.66037,6.953571 0.33018,0.229535 1.00626,0.243037 10.94322,0.243037 5.83324,0 10.67594,-0.0405 10.77027,-0.09451 0.36163,-0.18903 0.25156,-1.134175 -0.22012,-1.971305 -0.25157,-0.445568 -0.44025,-0.850631 -0.40881,-0.904638 0.0472,-0.148524 -0.72325,-1.566242 -0.8962,-1.660756 -0.0943,-0.0405 -0.17296,-0.202532 -0.17296,-0.351054 0,-0.351054 -0.73898,-1.606748 -0.94337,-1.606748 -0.0943,0 -0.23586,-0.162025 -0.31447,-0.351054 -0.12579,-0.270041 -0.22013,-0.32405 -0.51886,-0.256539 -0.50314,0.13502 -1.36791,0.607593 -1.36791,0.756117 0,0.06751 -0.11002,0.121518 -0.23584,0.121518 -0.31446,0 -2.05972,0.756116 -2.20122,0.945146 -0.0472,0.08101 -0.15724,0.108017 -0.22012,0.08101 -0.0472,-0.0405 -0.59748,0.06751 -1.19495,0.216032 -0.6761,0.162026 -1.46224,0.256541 -2.044,0.229536 -0.51886,-0.0135 -1.11633,-0.027 -1.33645,-0.0135 -0.22012,0 -0.42453,-0.0405 -0.4717,-0.08102 -0.0472,-0.05401 -0.51886,-0.283543 -1.06916,-0.499577 -0.88049,-0.364556 -1.02199,-0.486075 -1.46223,-1.215187 -0.28303,-0.445568 -0.55032,-0.837128 -0.59748,-0.877634 -0.0629,-0.0405 -0.18868,-0.607595 -0.28301,-1.255694 -0.14152,-1.012656 -0.12579,-1.309702 0.12577,-2.07932 0.15724,-0.499577 0.25157,-0.945147 0.2044,-0.999154 -0.0315,-0.05401 0.33019,-0.44557 0.80188,-0.877636 0.47169,-0.445569 0.86477,-0.837129 0.86477,-0.90464 0,-0.05401 0.0943,-0.09451 0.2044,-0.09451 0.0943,0 0.67608,-0.175527 1.28928,-0.378058 0.91194,-0.32405 1.19495,-0.364556 1.69809,-0.270042 0.33018,0.06751 0.86476,0.135021 1.17922,0.162026 0.31447,0.027 0.84905,0.13502 1.16351,0.270041 0.83332,0.310547 1.24212,0.324049 1.39935,0.0405 0.0787,-0.121519 0.22012,-0.337552 0.29874,-0.472573 0.36163,-0.526581 0.81759,-1.458225 0.84904,-1.741768 0.0157,-0.162025 0.11002,-0.378059 0.20439,-0.472573 0.28302,-0.283543 0.83332,-1.620249 0.73899,-1.75527 -0.0472,-0.06751 0.0315,-0.243037 0.17295,-0.378059 0.14152,-0.135021 0.29874,-0.486074 0.34591,-0.78312 0.0628,-0.432067 0.0315,-0.567087 -0.20439,-0.675104 -0.17296,-0.08102 -0.33019,-0.135021 -0.37736,-0.121519 -0.0472,0 -0.34591,-0.08101 -0.69182,-0.175527 -0.36162,-0.09451 -0.84904,-0.135021 -1.25783,-0.06751 -0.34591,0.0405 -0.92767,0.108016 -1.25785,0.148522 -0.86477,0.08101 -1.79243,0.310548 -1.90248,0.459071 -0.0472,0.08101 -0.25157,0.135021 -0.44025,0.135021 -0.42452,0 -1.68237,0.391561 -2.01254,0.634598 -0.14151,0.108016 -0.31446,0.175526 -0.39308,0.148522 -0.0786,-0.01351 -0.4088,0.01351 -0.72325,0.06751 -0.73899,0.135021 -1.41509,-0.13502 -1.47797,-0.594091 -0.0315,-0.175528 -0.11002,-0.661602 -0.18868,-1.066665 -0.0943,-0.405062 -0.0943,-0.823627 -0.0157,-0.945146 0.0628,-0.108016 0.25157,-0.567087 0.39308,-1.012655 0.22012,-0.675104 0.44024,-0.945146 1.22639,-1.62025 0.51886,-0.445569 1.022,-0.810125 1.11634,-0.810125 0.0787,-0.01351 0.58175,-0.121519 1.10061,-0.270041 0.89621,-0.243038 3.85214,-0.391561 3.85214,-0.18903 0,0.06751 0.45597,0.18903 1.85532,0.486075 0.20439,0.0405 0.53458,0.202532 0.73898,0.364557 0.2044,0.162025 0.61319,0.418564 0.91193,0.553584 l 0.53458,0.243038 0.53459,-0.45907 c 0.29874,-0.25654 0.66036,-0.729113 0.83332,-1.066665 0.15723,-0.337552 0.3459,-0.702108 0.42452,-0.810124 0.50313,-0.742615 1.05344,-1.728267 0.99056,-1.795777 -0.0472,-0.0405 0.0472,-0.243038 0.23584,-0.459071 0.44024,-0.540083 0.5503,-0.999154 0.26729,-1.323204 -0.22012,-0.270042 -0.42453,-0.270042 -9.33947,-0.297046 l -9.10364,-0.027 z"
       id="path1845"
       style="stroke-width:0.0145702" /><path
       d="m 206.68442,26.887868 c -0.14283,0.08493 -0.36487,0.382194 -0.7773,1.019183 -0.12686,0.21233 -0.30141,0.721921 -0.38073,1.132425 -0.095,0.424659 -0.23794,1.075804 -0.33313,1.472153 -0.095,0.382193 -0.12685,0.863474 -0.0793,1.033337 0.0476,0.18402 0.0163,0.42466 -0.0793,0.523747 -0.15862,0.169864 -0.22209,0.821009 -0.39658,4.317371 -0.0476,0.976717 -0.11106,1.840191 -0.15862,1.939278 -0.0318,0.09909 0,0.21233 0.0793,0.254796 0.11109,0.05662 0.0952,0.184019 0,0.353883 -0.095,0.169863 -0.12686,2.590421 -0.0793,6.82286 0.0636,6.483134 0.14283,8.620587 0.33313,9.03109 0.0476,0.113243 0.11108,0.580369 0.14284,1.019183 0.0163,0.45297 0.15863,0.976717 0.30139,1.174892 0.14284,0.184019 0.25381,0.438814 0.25381,0.566211 0,0.113243 0.14285,0.339729 0.30142,0.481282 0.28554,0.254795 0.53935,0.268951 3.82305,0.254795 2.91885,-0.02831 3.52166,-0.05662 3.64859,-0.24064 0.17441,-0.254795 0.0476,-1.019183 -0.2697,-1.642017 -0.12687,-0.24064 -0.20621,-0.495435 -0.17441,-0.566212 0.0476,-0.21233 -0.20623,-1.528773 -0.34899,-1.684483 -0.0636,-0.08493 -0.17442,-0.622833 -0.23797,-1.203201 -0.0476,-0.580368 -0.17441,-1.14658 -0.26965,-1.231512 -0.0952,-0.09909 -0.12688,-0.268951 -0.0793,-0.368039 0.0476,-0.113242 0.0163,-0.651144 -0.0476,-1.231512 -0.11107,-0.948406 -0.0951,-1.075804 0.26967,-1.684482 0.2221,-0.353883 0.49177,-0.792698 0.58695,-0.962561 0.0951,-0.184019 0.22208,-0.325572 0.28555,-0.325572 0.12687,0 1.76082,-0.87763 1.87185,-1.005028 0.0476,-0.04246 0.33315,-0.127397 0.63455,-0.155708 0.58694,-0.08493 1.90361,0.339727 1.90361,0.608679 0,0.07078 0.36483,0.552057 0.79315,1.047492 0.44419,0.509592 0.76145,0.920097 0.72972,0.920097 -0.12686,0 0.69798,1.571239 0.93593,1.797724 0.14283,0.113242 0.20623,0.254795 0.15862,0.325573 -0.0793,0.127397 0.36487,1.401376 0.58695,1.656171 0.0793,0.08493 0.17442,0.353882 0.20624,0.594523 0.0793,0.495435 0.39658,1.585395 0.52348,1.769413 0.0476,0.08493 0.11107,0.594524 0.14284,1.132426 0.0317,0.552058 0.12686,1.061648 0.20623,1.132425 0.0636,0.05662 0.0952,0.325572 0.0476,0.580367 -0.12687,0.693612 0.26967,0.764387 4.2831,0.750233 3.96582,-0.02831 4.01341,-0.02831 3.85479,-1.019183 -0.0476,-0.325572 -0.11109,-1.047494 -0.15864,-1.62786 -0.0318,-0.566214 -0.14284,-1.104115 -0.23794,-1.189047 -0.095,-0.08493 -0.17442,-0.353884 -0.17442,-0.580368 0,-0.608679 -0.30142,-1.528774 -0.58695,-1.811881 -0.12687,-0.127398 -0.19035,-0.297261 -0.14283,-0.368037 0.0793,-0.113243 -0.39661,-1.174892 -0.84076,-1.868502 -0.0636,-0.113243 -0.30141,-0.523746 -0.50763,-0.90594 -0.20622,-0.368037 -0.53936,-0.821008 -0.72971,-0.990872 -0.20622,-0.155709 -0.36485,-0.382194 -0.36485,-0.48128 0,-0.226485 -0.90422,-1.3306 -1.20562,-1.486308 -0.12687,-0.05662 -0.22211,-0.198176 -0.22211,-0.297262 0,-0.09909 -0.39656,-0.552057 -0.87246,-1.005027 -0.47589,-0.438815 -0.87249,-0.835164 -0.87249,-0.863474 0,-0.04246 -0.15862,-0.254796 -0.33312,-0.467126 -0.2697,-0.339728 -0.31728,-0.48128 -0.19036,-0.821008 0.0793,-0.21233 0.23795,-0.396349 0.31727,-0.396349 0.2538,0 1.63391,-0.948406 1.8084,-1.245668 0.0793,-0.127397 0.23798,-0.24064 0.34901,-0.24064 0.28553,0 1.31666,-0.990872 1.45942,-1.387221 0.0476,-0.169863 0.19035,-0.311416 0.30139,-0.311416 0.25383,0 1.047,-1.273979 1.047,-1.684483 0,-0.155708 0.0636,-0.297262 0.15863,-0.297262 0.22208,0 0.66626,-1.472152 0.55522,-1.882657 -0.0636,-0.198174 -0.0318,-0.396348 0.0636,-0.438814 0.22208,-0.127398 0.22208,-0.849319 0,-1.81188 -0.30141,-1.344755 -0.63453,-2.250695 -0.8725,-2.335627 -0.12686,-0.04246 -0.22207,-0.184019 -0.22207,-0.311417 0,-0.311417 -1.06284,-1.429687 -1.34839,-1.429687 -0.12686,0 -0.3014,-0.113242 -0.38071,-0.254795 -0.17442,-0.283106 -1.72912,-1.089959 -1.87188,-0.976716 -0.0476,0.04246 -0.36485,-0.05662 -0.71385,-0.212331 -0.3966,-0.184018 -0.95179,-0.297261 -1.49115,-0.311416 -0.47591,0 -0.85662,-0.05662 -0.85662,-0.113243 0,-0.127397 -13.86456,-0.113242 -14.05491,0.01416 z m 10.97744,4.600477 c 0.66624,0.02831 1.18973,0.155709 1.79254,0.45297 0.46004,0.226486 0.96766,0.467126 1.1263,0.537903 0.15863,0.07078 0.38071,0.424659 0.52348,0.778542 0.28555,0.764386 0.47591,2.137452 0.28555,2.137452 -0.0636,0 -0.25382,0.254796 -0.41246,0.566213 -0.15862,0.311417 -0.38069,0.636988 -0.49174,0.721921 -0.12686,0.08493 -0.19037,0.198174 -0.14283,0.254795 0.0317,0.05662 -0.36487,0.410504 -0.8725,0.806853 -0.50762,0.382194 -0.93594,0.778542 -0.93594,0.863474 -0.0163,0.09909 -0.0793,0.198175 -0.17442,0.198175 -0.31726,0.04246 -0.41245,0.08493 -1.22148,0.552056 -0.46002,0.254797 -0.84075,0.523748 -0.84075,0.580369 0,0.07078 -0.11108,0.127397 -0.23794,0.127397 -0.2697,0 -1.85602,0.679456 -1.98292,0.849319 -0.0476,0.05662 -0.44419,0.155709 -0.87248,0.198175 -0.68214,0.08493 -0.85664,0.05662 -1.17389,-0.184019 -0.42832,-0.325572 -0.49178,-0.651144 -0.49178,-2.420559 0,-1.528774 0.0951,-2.576267 0.33315,-3.468052 0.0952,-0.396348 0.19035,-0.835163 0.20621,-1.005027 0,-0.155708 0.36487,-0.707766 0.77731,-1.203201 0.74556,-0.905941 0.77729,-0.934252 1.79257,-1.11827 0.57107,-0.113243 1.07869,-0.254796 1.12628,-0.311417 0.0317,-0.07078 0.26969,-0.08493 0.52349,-0.04246 0.23794,0.04246 0.85661,0.09909 1.36425,0.127397 z"
       id="path1875"
       style="stroke-width:0.0149849" /></g></svg>
